<svg viewBox="0 0 390 844" xmlns="http://www.w3.org/2000/svg">
  <!-- G-10 · ST-06 Timeline · Mobile 390×844 -->
  <text x="8" y="12" font-family="Arial" font-size="9" fill="#9CA3AF">G-10 · ST-06 Timeline · Mobile 390×844</text>
  <rect width="390" height="844" fill="#F9FAFB"/>

  <!-- Status bar -->
  <rect width="390" height="44" fill="#FFFFFF"/>
  <text x="20" y="30" font-family="Arial" font-size="13" font-weight="bold" fill="#111827">9:41</text>
  <text x="340" y="30" font-family="Arial" font-size="12" fill="#111827">● ●● ■■■</text>

  <!-- Nav Header -->
  <rect y="44" width="390" height="56" fill="#FFFFFF"/>
  <line x1="0" y1="100" x2="390" y2="100" stroke="#E5E7EB"/>
  <text x="195" y="78" text-anchor="middle" font-family="Arial" font-size="16" font-weight="bold" fill="#111827">타임라인</text>
  <text x="20" y="78" font-family="Arial" font-size="20" fill="#374151">←</text>
  <!-- Filter icon -->
  <circle cx="360" cy="72" r="18" fill="#F3F4F6"/>
  <text x="360" y="78" text-anchor="middle" font-family="Arial" font-size="14" fill="#374151">☰</text>

  <!-- Filter chips (horizontal scroll, y=100) -->
  <rect y="100" width="390" height="48" fill="#FFFFFF"/>
  <line x1="0" y1="148" x2="390" y2="148" stroke="#E5E7EB"/>
  <!-- Chips -->
  <rect x="12" y="112" width="56" height="24" rx="12" fill="#EEF4FD" stroke="#4377C0"/>
  <text x="40" y="128" text-anchor="middle" font-family="Arial" font-size="11" fill="#2E5FA8">전체</text>
  <rect x="76" y="112" width="44" height="24" rx="12" fill="#FEF0F0" stroke="#E04545"/>
  <text x="98" y="128" text-anchor="middle" font-family="Arial" font-size="11" fill="#BF3030">의료</text>
  <rect x="128" y="112" width="44" height="24" rx="12" fill="#F3F4F6" stroke="#E5E7EB"/>
  <text x="150" y="128" text-anchor="middle" font-family="Arial" font-size="11" fill="#374151">교육</text>
  <rect x="180" y="112" width="44" height="24" rx="12" fill="#F3F4F6" stroke="#E5E7EB"/>
  <text x="202" y="128" text-anchor="middle" font-family="Arial" font-size="11" fill="#374151">복지</text>
  <rect x="232" y="112" width="44" height="24" rx="12" fill="#F3F4F6" stroke="#E5E7EB"/>
  <text x="254" y="128" text-anchor="middle" font-family="Arial" font-size="11" fill="#374151">일상</text>
  <rect x="284" y="112" width="44" height="24" rx="12" fill="#F3F4F6" stroke="#E5E7EB"/>
  <text x="306" y="128" text-anchor="middle" font-family="Arial" font-size="11" fill="#374151">전환</text>
  <rect x="336" y="112" width="44" height="24" rx="12" fill="#F3F4F6" stroke="#E5E7EB"/>
  <text x="358" y="128" text-anchor="middle" font-family="Arial" font-size="11" fill="#374151">법적</text>

  <!-- Life stage label -->
  <rect x="12" y="156" width="366" height="24" rx="6" fill="#F4EFFB"/>
  <text x="195" y="172" text-anchor="middle" font-family="Arial" font-size="11" font-weight="bold" fill="#6A43A8">성인전환기 (19~24세)</text>

  <!-- Timeline vertical line -->
  <line x1="36" y1="188" x2="36" y2="720" stroke="#D1D5DB" stroke-width="2"/>

  <!-- TODAY marker -->
  <line x1="12" y1="192" x2="378" y2="192" stroke="#E8724A" stroke-dasharray="3,2" stroke-width="1.5"/>
  <rect x="12" y="185" width="40" height="14" rx="7" fill="#E8724A"/>
  <text x="32" y="195" text-anchor="middle" font-family="Arial" font-size="9" fill="white">오늘</text>

  <!-- Entry 1: Milestone -->
  <rect x="28" y="208" width="16" height="16" rx="2" fill="#E8724A" transform="rotate(45, 36, 216)"/>
  <rect x="60" y="202" width="318" height="84" rx="10" fill="#FFF8F4" stroke="#E8724A" stroke-width="1.5"/>
  <rect x="68" y="210" width="52" height="18" rx="9" fill="#E8724A"/>
  <text x="94" y="223" text-anchor="middle" font-family="Arial" font-size="9" fill="white">이정표 ★</text>
  <text x="68" y="248" font-family="Arial" font-size="13" font-weight="bold" fill="#111827">고교 졸업 — 서울온돌고</text>
  <text x="68" y="266" font-family="Arial" font-size="11" fill="#6B7280">2025년 2월 · 교육</text>
  <text x="68" y="278" font-family="Arial" font-size="11" fill="#9CA3AF">졸업 후 전환계획 연계</text>

  <!-- Entry 2: regular -->
  <circle cx="36" cy="318" r="8" fill="#E04545"/>
  <rect x="60" y="304" width="318" height="72" rx="10" fill="#FFFFFF" stroke="#E5E7EB"/>
  <rect x="68" y="312" width="40" height="16" rx="8" fill="#FEF0F0"/>
  <text x="88" y="324" text-anchor="middle" font-family="Arial" font-size="9" fill="#BF3030">의료</text>
  <text x="116" y="322" font-family="Arial" font-size="13" font-weight="bold" fill="#111827">정기 진료 기록</text>
  <text x="358" y="322" text-anchor="end" font-family="Arial" font-size="11" fill="#9CA3AF">오늘</text>
  <text x="68" y="344" font-family="Arial" font-size="11" fill="#6B7280">김치료사 · 서울대병원</text>
  <text x="358" y="368" text-anchor="end" font-family="Arial" font-size="11" fill="#3B7D8E">보기 →</text>

  <!-- Entry 3: regular -->
  <circle cx="36" cy="410" r="8" fill="#4377C0"/>
  <rect x="60" y="396" width="318" height="72" rx="10" fill="#FFFFFF" stroke="#E5E7EB"/>
  <rect x="68" y="404" width="40" height="16" rx="8" fill="#EEF4FD"/>
  <text x="88" y="416" text-anchor="middle" font-family="Arial" font-size="9" fill="#2E5FA8">교육</text>
  <text x="116" y="414" font-family="Arial" font-size="13" font-weight="bold" fill="#111827">IEP 목표 업데이트</text>
  <text x="358" y="414" text-anchor="end" font-family="Arial" font-size="11" fill="#9CA3AF">어제</text>
  <text x="68" y="436" font-family="Arial" font-size="11" fill="#6B7280">이특수교사 · 언어치료</text>
  <text x="358" y="460" text-anchor="end" font-family="Arial" font-size="11" fill="#3B7D8E">보기 →</text>

  <!-- Self expression dot -->
  <circle cx="36" cy="502" r="6" fill="#E8724A" opacity="0.8"/>
  <rect x="60" y="490" width="318" height="56" rx="10" fill="#FFF8F4" stroke="#FACDB8"/>
  <text x="68" y="514" font-family="Arial" font-size="13" fill="#E8724A">😊 자기표현 — 좋아요</text>
  <text x="358" y="514" text-anchor="end" font-family="Arial" font-size="11" fill="#9CA3AF">어제</text>
  <text x="68" y="534" font-family="Arial" font-size="11" fill="#6B7280">활동: 친구, 운동 · 식사: 잘먹음</text>

  <!-- Entry 4: regular -->
  <circle cx="36" cy="588" r="8" fill="#3EA673"/>
  <rect x="60" y="574" width="318" height="64" rx="10" fill="#FFFFFF" stroke="#E5E7EB"/>
  <rect x="68" y="582" width="40" height="16" rx="8" fill="#EDFAF3"/>
  <text x="88" y="594" text-anchor="middle" font-family="Arial" font-size="9" fill="#276B4C">복지</text>
  <text x="116" y="592" font-family="Arial" font-size="13" font-weight="bold" fill="#111827">ISP 중간 점검</text>
  <text x="358" y="592" text-anchor="end" font-family="Arial" font-size="11" fill="#9CA3AF">3일 전</text>
  <text x="68" y="612" font-family="Arial" font-size="11" fill="#6B7280">최사회복지사 · 온돌복지관</text>

  <!-- Stage label: 청소년기 -->
  <line x1="12" y1="660" x2="378" y2="660" stroke="#E5E7EB" stroke-dasharray="4,4"/>
  <rect x="12" y="653" width="366" height="24" rx="6" fill="#F0F4FE"/>
  <text x="195" y="669" text-anchor="middle" font-family="Arial" font-size="11" font-weight="bold" fill="#2E5FA8">청소년기 (13~18세)</text>

  <!-- Entry 5 in prev stage -->
  <circle cx="36" cy="696" r="8" fill="#8A5DC6"/>
  <rect x="60" y="682" width="318" height="60" rx="10" fill="#FFFFFF" stroke="#E5E7EB"/>
  <rect x="68" y="690" width="40" height="16" rx="8" fill="#F4EFFB"/>
  <text x="88" y="702" text-anchor="middle" font-family="Arial" font-size="9" fill="#6A43A8">전환</text>
  <text x="116" y="700" font-family="Arial" font-size="13" fill="#374151">전환교육 계획서</text>
  <text x="358" y="700" text-anchor="end" font-family="Arial" font-size="11" fill="#9CA3AF">2023.04</text>

  <!-- BOTTOM TAB BAR -->
  <rect y="744" width="390" height="56" fill="#FFFFFF" stroke="#E5E7EB" stroke-width="1"/>
  <text x="39" y="762" text-anchor="middle" font-family="Arial" font-size="18" fill="#9CA3AF">🏠</text>
  <text x="39" y="790" text-anchor="middle" font-family="Arial" font-size="10" fill="#9CA3AF">홈</text>
  <text x="117" y="762" text-anchor="middle" font-family="Arial" font-size="18" fill="#3B7D8E">📅</text>
  <text x="117" y="790" text-anchor="middle" font-family="Arial" font-size="10" font-weight="bold" fill="#3B7D8E">타임라인</text>
  <rect x="98" y="744" width="38" height="3" rx="1.5" fill="#3B7D8E"/>
  <circle cx="195" cy="772" r="26" fill="#3B7D8E"/>
  <text x="195" y="780" text-anchor="middle" font-family="Arial" font-size="22" fill="white">+</text>
  <text x="273" y="762" text-anchor="middle" font-family="Arial" font-size="18" fill="#9CA3AF">🔑</text>
  <text x="273" y="790" text-anchor="middle" font-family="Arial" font-size="10" fill="#9CA3AF">권한</text>
  <text x="351" y="762" text-anchor="middle" font-family="Arial" font-size="18" fill="#9CA3AF">⚙️</text>
  <text x="351" y="790" text-anchor="middle" font-family="Arial" font-size="10" fill="#9CA3AF">설정</text>

  <rect y="800" width="390" height="44" fill="#FFFFFF"/>
  <rect x="155" y="820" width="80" height="5" rx="2.5" fill="#D1D5DB"/>
</svg>
