<svg viewBox="0 0 390 844" xmlns="http://www.w3.org/2000/svg">
  <!-- A-03 · ST-09 Signup Role · Mobile 390×844 -->
  <text x="8" y="12" font-family="Arial" font-size="9" fill="#9CA3AF">A-03 · ST-09 Signup Role · Mobile 390×844</text>
  <rect width="390" height="844" fill="#FFFFFF"/>
  <rect width="390" height="844" rx="0" fill="none" stroke="#E5E7EB"/>

  <!-- Status bar -->
  <rect width="390" height="44" fill="#FFFFFF"/>
  <text x="20" y="30" font-family="Arial" font-size="13" font-weight="bold" fill="#111827">9:41</text>
  <text x="340" y="30" font-family="Arial" font-size="12" fill="#111827">● ●● ■■■</text>

  <!-- Nav bar -->
  <rect y="44" width="390" height="56" fill="#FFFFFF"/>
  <line y1="100" x1="0" y2="100" x2="390" stroke="#E5E7EB"/>
  <text x="20" y="78" font-family="Arial" font-size="22" fill="#374151">←</text>
  <text x="195" y="80" text-anchor="middle" font-family="Arial" font-size="16" font-weight="bold" fill="#111827">회원가입</text>

  <!-- Step indicator -->
  <text x="195" y="128" text-anchor="middle" font-family="Arial" font-size="11" fill="#6B7280">STEP 1 / 3 · 역할 선택</text>
  <line x1="90" y1="146" x2="300" y2="146" stroke="#E5E7EB" stroke-width="3"/>
  <line x1="90" y1="146" x2="160" y2="146" stroke="#3B7D8E" stroke-width="3"/>
  <circle cx="90" cy="146" r="6" fill="#3B7D8E"/>
  <circle cx="195" cy="146" r="6" fill="#E5E7EB"/>
  <circle cx="300" cy="146" r="6" fill="#E5E7EB"/>

  <!-- Title -->
  <text x="195" y="184" text-anchor="middle" font-family="Arial" font-size="20" font-weight="bold" fill="#111827">어떤 역할로 가입하시나요?</text>
  <text x="195" y="206" text-anchor="middle" font-family="Arial" font-size="12" fill="#6B7280">역할에 따라 사용 가능한 기능이 달라집니다</text>

  <!-- Role cards (2 columns) -->
  <!-- Guardian (selected) -->
  <rect x="20" y="232" width="172" height="148" rx="14" fill="#EEF4FD" stroke="#3B7D8E" stroke-width="2"/>
  <circle cx="106" cy="280" r="26" fill="#3B7D8E"/>
  <text x="106" y="289" text-anchor="middle" font-family="Arial" font-size="20" fill="white">👨‍👩‍👧</text>
  <text x="106" y="328" text-anchor="middle" font-family="Arial" font-size="14" font-weight="bold" fill="#111827">보호자</text>
  <text x="106" y="348" text-anchor="middle" font-family="Arial" font-size="11" fill="#6B7280">가족·후견인</text>
  <circle cx="106" cy="368" r="9" fill="#3B7D8E"/>
  <text x="106" y="373" text-anchor="middle" font-family="Arial" font-size="11" fill="white">✓</text>

  <!-- Person -->
  <rect x="198" y="232" width="172" height="148" rx="14" fill="#FFF8F4" stroke="#FACDB8"/>
  <circle cx="284" cy="280" r="26" fill="#E8724A"/>
  <text x="284" y="289" text-anchor="middle" font-family="Arial" font-size="20" fill="white">💛</text>
  <text x="284" y="328" text-anchor="middle" font-family="Arial" font-size="14" font-weight="bold" fill="#111827">당사자</text>
  <text x="284" y="348" text-anchor="middle" font-family="Arial" font-size="11" fill="#6B7280">발달장애 본인</text>
  <rect x="220" y="358" width="128" height="18" rx="9" fill="#FFE8DA"/>
  <text x="284" y="370" text-anchor="middle" font-family="Arial" font-size="9" fill="#E8724A">접근성 모드</text>

  <!-- Supporter -->
  <rect x="20" y="394" width="172" height="148" rx="14" fill="#FFFFFF" stroke="#E5E7EB"/>
  <circle cx="106" cy="442" r="26" fill="#B56F10"/>
  <text x="106" y="451" text-anchor="middle" font-family="Arial" font-size="20" fill="white">🤝</text>
  <text x="106" y="490" text-anchor="middle" font-family="Arial" font-size="14" font-weight="bold" fill="#111827">활동지원사</text>
  <text x="106" y="510" text-anchor="middle" font-family="Arial" font-size="11" fill="#6B7280">활동지원 인력</text>

  <!-- Teacher -->
  <rect x="198" y="394" width="172" height="148" rx="14" fill="#FFFFFF" stroke="#E5E7EB"/>
  <circle cx="284" cy="442" r="26" fill="#2E5FA8"/>
  <text x="284" y="451" text-anchor="middle" font-family="Arial" font-size="20" fill="white">🎓</text>
  <text x="284" y="490" text-anchor="middle" font-family="Arial" font-size="14" font-weight="bold" fill="#111827">특수교사</text>
  <text x="284" y="510" text-anchor="middle" font-family="Arial" font-size="11" fill="#6B7280">특수교육 교사</text>

  <!-- Social worker -->
  <rect x="20" y="556" width="172" height="148" rx="14" fill="#FFFFFF" stroke="#E5E7EB"/>
  <circle cx="106" cy="604" r="26" fill="#276B4C"/>
  <text x="106" y="613" text-anchor="middle" font-family="Arial" font-size="20" fill="white">🏛️</text>
  <text x="106" y="652" text-anchor="middle" font-family="Arial" font-size="14" font-weight="bold" fill="#111827">사회복지사</text>
  <text x="106" y="672" text-anchor="middle" font-family="Arial" font-size="11" fill="#6B7280">기관 복지사</text>

  <!-- Therapist -->
  <rect x="198" y="556" width="172" height="148" rx="14" fill="#FFFFFF" stroke="#E5E7EB"/>
  <circle cx="284" cy="604" r="26" fill="#6A43A8"/>
  <text x="284" y="613" text-anchor="middle" font-family="Arial" font-size="20" fill="white">💆</text>
  <text x="284" y="652" text-anchor="middle" font-family="Arial" font-size="14" font-weight="bold" fill="#111827">치료사</text>
  <text x="284" y="672" text-anchor="middle" font-family="Arial" font-size="11" fill="#6B7280">언어·인지·작업</text>

  <!-- Bottom CTA -->
  <rect x="20" y="730" width="350" height="56" rx="12" fill="#3B7D8E"/>
  <text x="195" y="764" text-anchor="middle" font-family="Arial" font-size="16" font-weight="bold" fill="white">다음 단계 →</text>

  <!-- Bottom safe area -->
  <rect y="800" width="390" height="44" fill="#FFFFFF"/>
  <rect x="155" y="820" width="80" height="5" rx="2.5" fill="#D1D5DB"/>
</svg>
