<svg viewBox="0 0 390 844" xmlns="http://www.w3.org/2000/svg">
  <!-- G-50 · ST-02 Notifications · Mobile 390×844 -->
  <text x="8" y="12" font-family="Arial" font-size="9" fill="#9CA3AF">G-50 · ST-02 Notifications · Mobile 390×844</text>
  <rect width="390" height="844" fill="#F9FAFB"/>
  <rect width="390" height="844" rx="0" fill="none" stroke="#E5E7EB"/>

  <!-- Status bar -->
  <rect width="390" height="44" fill="#FFFFFF"/>
  <text x="20" y="30" font-family="Arial" font-size="13" font-weight="bold" fill="#111827">9:41</text>

  <!-- Nav bar -->
  <rect y="44" width="390" height="56" fill="#FFFFFF"/>
  <line y1="100" x1="0" y2="100" x2="390" stroke="#E5E7EB"/>
  <text x="20" y="80" font-family="Arial" font-size="20" font-weight="bold" fill="#111827">알림</text>
  <text x="370" y="78" text-anchor="end" font-family="Arial" font-size="12" fill="#3B7D8E">모두 읽음</text>

  <!-- Tabs -->
  <rect x="0" y="100" width="390" height="40" fill="#FFFFFF"/>
  <line y1="140" x1="0" y2="140" x2="390" stroke="#E5E7EB"/>
  <rect x="20" y="137" width="60" height="3" fill="#3B7D8E"/>
  <text x="50" y="125" text-anchor="middle" font-family="Arial" font-size="12" font-weight="bold" fill="#3B7D8E">전체</text>
  <text x="130" y="125" text-anchor="middle" font-family="Arial" font-size="12" fill="#6B7280">새 기록</text>
  <text x="210" y="125" text-anchor="middle" font-family="Arial" font-size="12" fill="#6B7280">권한</text>
  <text x="290" y="125" text-anchor="middle" font-family="Arial" font-size="12" fill="#6B7280">⚠ 보안</text>

  <!-- Today -->
  <text x="20" y="164" font-family="Arial" font-size="11" font-weight="bold" fill="#6B7280">오늘</text>

  <!-- Unread 1 -->
  <rect x="16" y="176" width="358" height="84" rx="12" fill="#EEF4FD" stroke="#A8C4E4"/>
  <circle cx="34" cy="200" r="3" fill="#3B7D8E"/>
  <circle cx="56" cy="214" r="18" fill="#FEF0F0"/>
  <text x="56" y="220" text-anchor="middle" font-family="Arial" font-size="14" fill="#BF3030">📄</text>
  <text x="84" y="200" font-family="Arial" font-size="13" font-weight="bold" fill="#111827">새 의료 기록 작성됨</text>
  <text x="84" y="218" font-family="Arial" font-size="11" fill="#374151">김의사 · 정기 진료 — 소아청소년과</text>
  <text x="84" y="234" font-family="Arial" font-size="10" fill="#6B7280">이온돌 · 1시간 전</text>
  <text x="358" y="250" text-anchor="end" font-family="Arial" font-size="11" fill="#3B7D8E">기록 보기 →</text>

  <!-- Unread 2 -->
  <rect x="16" y="276" width="358" height="84" rx="12" fill="#EEF4FD" stroke="#A8C4E4"/>
  <circle cx="34" cy="300" r="3" fill="#3B7D8E"/>
  <circle cx="56" cy="314" r="18" fill="#FFF8F4"/>
  <text x="56" y="320" text-anchor="middle" font-family="Arial" font-size="14" fill="#E8724A">💛</text>
  <text x="84" y="300" font-family="Arial" font-size="13" font-weight="bold" fill="#111827">오늘 기분: 😊 좋아요</text>
  <text x="84" y="318" font-family="Arial" font-size="11" fill="#374151">이온돌이 자기표현 기록</text>
  <text x="84" y="334" font-family="Arial" font-size="10" fill="#6B7280">오늘 09:12</text>

  <!-- Unread 3 - permission request -->
  <rect x="16" y="376" width="358" height="120" rx="12" fill="#EEF4FD" stroke="#A8C4E4"/>
  <circle cx="34" cy="400" r="3" fill="#3B7D8E"/>
  <circle cx="56" cy="414" r="18" fill="#F4EFFB"/>
  <text x="56" y="420" text-anchor="middle" font-family="Arial" font-size="14" fill="#6A43A8">🔑</text>
  <text x="84" y="400" font-family="Arial" font-size="13" font-weight="bold" fill="#111827">권한 승인 요청</text>
  <text x="84" y="418" font-family="Arial" font-size="11" fill="#374151">한치료사 · 의료 작성 권한 요청</text>
  <text x="84" y="434" font-family="Arial" font-size="10" fill="#6B7280">2시간 전</text>
  <rect x="84" y="448" width="120" height="36" rx="8" fill="#FFFFFF" stroke="#D1D5DB"/>
  <text x="144" y="471" text-anchor="middle" font-family="Arial" font-size="12" fill="#6B7280">거절</text>
  <rect x="212" y="448" width="148" height="36" rx="8" fill="#3B7D8E"/>
  <text x="286" y="471" text-anchor="middle" font-family="Arial" font-size="12" font-weight="bold" fill="white">승인</text>

  <!-- Yesterday -->
  <text x="20" y="528" font-family="Arial" font-size="11" font-weight="bold" fill="#6B7280">어제</text>

  <rect x="16" y="540" width="358" height="76" rx="12" fill="#FFFFFF" stroke="#E5E7EB"/>
  <circle cx="56" cy="578" r="18" fill="#EEF4FD"/>
  <text x="56" y="584" text-anchor="middle" font-family="Arial" font-size="14" fill="#2E5FA8">📚</text>
  <text x="84" y="566" font-family="Arial" font-size="13" font-weight="bold" fill="#374151">IEP 1학기 점검 완료</text>
  <text x="84" y="584" font-family="Arial" font-size="11" fill="#6B7280">이특수교사 · 75% 달성 양호</text>
  <text x="84" y="600" font-family="Arial" font-size="10" fill="#9CA3AF">어제 10:00</text>

  <rect x="16" y="624" width="358" height="76" rx="12" fill="#FFFFFF" stroke="#E5E7EB"/>
  <circle cx="56" cy="662" r="18" fill="#FFF5E6"/>
  <text x="56" y="668" text-anchor="middle" font-family="Arial" font-size="14" fill="#B56F10">📋</text>
  <text x="84" y="650" font-family="Arial" font-size="13" font-weight="bold" fill="#374151">활동지원 일지 등록</text>
  <text x="84" y="668" font-family="Arial" font-size="11" fill="#6B7280">박지원사 · 2026-06-11</text>
  <text x="84" y="684" font-family="Arial" font-size="10" fill="#9CA3AF">어제 19:00</text>

  <!-- Security alert -->
  <text x="20" y="724" font-family="Arial" font-size="11" font-weight="bold" fill="#6B7280">이번 주</text>
  <rect x="16" y="736" width="358" height="36" rx="10" fill="#FEF0F0"/>
  <text x="32" y="757" font-family="Arial" font-size="11" font-weight="bold" fill="#BF3030">⚠ 권한 외 접근 시도 (한치료사) - 차단</text>

  <!-- Bottom tab bar -->
  <rect y="780" width="390" height="64" fill="#FFFFFF"/>
  <line y1="780" x1="0" y2="780" x2="390" stroke="#E5E7EB"/>
  <text x="39" y="808" text-anchor="middle" font-family="Arial" font-size="18" fill="#9CA3AF">🏠</text>
  <text x="39" y="826" text-anchor="middle" font-family="Arial" font-size="9" fill="#9CA3AF">홈</text>
  <text x="117" y="808" text-anchor="middle" font-family="Arial" font-size="18" fill="#9CA3AF">📅</text>
  <text x="117" y="826" text-anchor="middle" font-family="Arial" font-size="9" fill="#9CA3AF">타임라인</text>
  <text x="195" y="808" text-anchor="middle" font-family="Arial" font-size="18" fill="#9CA3AF">📝</text>
  <text x="195" y="826" text-anchor="middle" font-family="Arial" font-size="9" fill="#9CA3AF">기록</text>
  <text x="273" y="808" text-anchor="middle" font-family="Arial" font-size="18" fill="#3B7D8E">🔔</text>
  <text x="273" y="826" text-anchor="middle" font-family="Arial" font-size="9" font-weight="bold" fill="#3B7D8E">알림</text>
  <circle cx="285" cy="794" r="8" fill="#E04545"/>
  <text x="285" y="798" text-anchor="middle" font-family="Arial" font-size="8" fill="white">3</text>
  <text x="351" y="808" text-anchor="middle" font-family="Arial" font-size="18" fill="#9CA3AF">⚙</text>
  <text x="351" y="826" text-anchor="middle" font-family="Arial" font-size="9" fill="#9CA3AF">설정</text>
</svg>
